HIERARCHY
ROOT Hips
{
    OFFSET 0.0 0.0 0.0
    CHANNELS 6 Xposition Yposition Zposition Zrotation Xrotation Yrotation
    JOINT LeftHipJoint
    {
        OFFSET 0.1 0.0 0.0
        CHANNELS 3 Zrotation Xrotation Yrotation
        JOINT LeftUpLeg
        {
            OFFSET 128.3361560500768 0.0 0.0
            CHANNELS 3 Zrotation Xrotation Yrotation
            JOINT LeftLeg
            {
                OFFSET 0.0 0.0 -432.1951959250094
                CHANNELS 3 Zrotation Xrotation Yrotation
                JOINT LeftFoot
                {
                    OFFSET 0.0 0.0 -393.3911970169212
                    CHANNELS 3 Zrotation Xrotation Yrotation
                    End Site
                    {
                        OFFSET 0.0 -0.1 0.0
                    }
                }
            }
        }
    }
    JOINT LowerBack
    {
        OFFSET 0.0 0.0 0.1
        CHANNELS 3 Zrotation Xrotation Yrotation
        JOINT Spine
        {
            OFFSET 0.0 0.0 220.404825028158
            CHANNELS 3 Zrotation Xrotation Yrotation
            JOINT Spine1
            {
                OFFSET 0.0 0.0 251.40371460459508
                CHANNELS 3 Zrotation Xrotation Yrotation
                JOINT LeftShoulder
                {
                    OFFSET 0.1 0.0 0.0
                    CHANNELS 3 Zrotation Xrotation Yrotation
                    JOINT LeftArm
                    {
                        OFFSET 137.8472029223343 0.0 0.0
                        CHANNELS 3 Zrotation Xrotation Yrotation
                        JOINT LeftForeArm
                        {
                            OFFSET 270.18802291863256 0.0 0.0
                            CHANNELS 3 Zrotation Xrotation Yrotation
                            JOINT LeftHand
                            {
                                OFFSET 251.7859606058545 0.0 0.0
                                CHANNELS 3 Zrotation Xrotation Yrotation
                                End Site
                                {
                                    OFFSET 0.1 0.0 0.0
                                }
                            }
                        }
                    }
                }
                JOINT Neck
                {
                    OFFSET 0.0 0.0 0.1
                    CHANNELS 3 Zrotation Xrotation Yrotation
                    JOINT Neck1
                    {
                        OFFSET 0.0 0.0 101.61692364123344
                        CHANNELS 3 Zrotation Xrotation Yrotation
                        End Site
                        {
                            OFFSET 0.0 0.0 115.79046879788662
                        }
                    }
                }
                JOINT RightShoulder
                {
                    OFFSET -0.1 0.0 0.0
                    CHANNELS 3 Zrotation Xrotation Yrotation
                    JOINT RightArm
                    {
                        OFFSET -137.8472029223343 0.0 0.0
                        CHANNELS 3 Zrotation Xrotation Yrotation
                        JOINT RightForeArm
                        {
                            OFFSET -270.18802291863256 0.0 0.0
                            CHANNELS 3 Zrotation Xrotation Yrotation
                            JOINT RightHand
                            {
                                OFFSET -251.7859606058545 0.0 0.0
                                CHANNELS 3 Zrotation Xrotation Yrotation
                                End Site
                                {
                                    OFFSET -0.1 0.0 0.0
                                }
                            }
                        }
                    }
                }
            }
        }
    }
    JOINT RightHipJoint
    {
        OFFSET -0.1 0.0 0.0
        CHANNELS 3 Zrotation Xrotation Yrotation
        JOINT RightUpLeg
        {
            OFFSET -128.3361560500768 0.0 0.0
            CHANNELS 3 Zrotation Xrotation Yrotation
            JOINT RightLeg
            {
                OFFSET 0.0 0.0 -432.1951959250094
                CHANNELS 3 Zrotation Xrotation Yrotation
                JOINT RightFoot
                {
                    OFFSET 0.0 0.0 -393.3911970169212
                    CHANNELS 3 Zrotation Xrotation Yrotation
                    End Site
                    {
                        OFFSET 0.0 -0.1 0.0
                    }
                }
            }
        }
    }
}
MOTION
Frames: 6
Frame Time: 0.03333333333333333
0.0 0.0 821.2969820969188 30.046065433901493 8.086839262674038 3.815102221216758 0.0 0.0 3.975693351829396e-16 -1.0183751268575225 -24.098978988370725 -0.8397329976164513 0.9827887694882972 30.64790319828123 -0.08654141168174831 0.0 0.0 7.951386703658792e-16 0.0 0.0 3.975693351829396e-16 0.34066605256360594 8.487673427792481 1.4993725449510553 -1.1906549313196382 -1.97947769241653e-15 -8.157499477668761e-16 0.0 0.0 -7.951386703658792e-16 -2.889297216555788 12.004822788424427 70.66931126674606 -98.42695970632582 -2.0168281747235386e-14 1.7400515207176958e-14 0.0 0.0 3.1805546814635168e-15 0.0 0.0 -7.951386703658792e-16 -5.341906594615194 -14.69231201691966 -8.070686105328981 0.0 0.0 -7.951386703658792e-16 0.6267202197990361 14.53885756435584 -73.28038307824308 109.71536295761963 7.80245529225325e-15 5.492271310523966e-15 0.0 6.3611093629270335e-15 0.0 0.0 0.0 3.975693351829396e-16 -0.7909521270455288 -19.05127825522817 -4.203781779935257 -1.0681328456069192 30.840856428762738 2.0645185019875285 -3.1805546814635168e-15 1.987846675914698e-16 5.517382872562698e-33
0.0 0.0 821.2969820969188 29.87351060166698 8.018308018762736 3.827240069981388 3.4483642953516864e-34 1.987846675914698e-16 -1.987846675914698e-16 -1.0270402799260354 -24.02257924801475 -0.8544013924458638 0.99693578039856 30.79777801101306 -0.07696618494238049 0.0 0.0 -3.975693351829396e-16 3.4483642953516864e-34 1.987846675914698e-16 -1.987846675914698e-16 0.3429936037550845 8.44478518461714 1.5674792204368333 -1.265303501919826 -2.8091545786629232e-15 2.354541895314358e-15 0.0 0.0 0.0 -2.932565314595082 11.924328991135246 70.61839564632727 -98.39493812095016 -8.745601316649741e-16 -3.446745519809449e-15 1.7655625192200634e-31 -6.3611093629270335e-15 3.1805546814635168e-15 0.0 0.0 0.0 -5.108412804971219 -14.703274482509412 -8.059861236735209 0.0 0.0 0.0 0.7309744589721734 14.76617232860979 -73.44426874967019 109.6920753473714 -1.0987713666835853e-14 1.5602677953469735e-14 0.0 0.0 3.1805546814635168e-15 3.4483642953516864e-34 1.987846675914698e-16 -1.987846675914698e-16 -0.8000155193931833 -19.04386320545402 -4.152046630497932 -1.030836275622321 31.108972336987133 2.042171810485475 0.0 0.0 0.0
0.0 0.0 821.2969820969188 29.69784930282127 7.916039217310812 3.8420099211959253 -3.1805546814635168e-15 1.987846675914698e-16 -3.975693351829396e-16 -1.0277524498226946 -23.772030793059777 -0.8249916549643505 1.0233898515127509 30.62701255506553 -0.08113823783551694 -3.1805546814635168e-15 0.0 0.0 -3.1805546814635168e-15 1.987846675914698e-16 -3.975693351829396e-16 0.3466411669292857 8.429538690918212 1.6048898860856182 -1.3822961002595613 1.1830298569465814e-15 8.094678802672846e-16 0.0 0.0 3.975693351829396e-16 -2.8718482290105176 11.769813372501247 70.5919777132368 -98.1916901360483 4.786980843264076e-15 6.094232112757767e-17 0.0 0.0 -3.1805546814635168e-15 0.0 0.0 3.975693351829396e-16 -4.820990016802321 -14.715276910478307 -8.029303161408983 0.0 0.0 3.975693351829396e-16 0.8811931904021304 15.086147927427062 -73.49585225160219 109.75608892208822 -1.6667009906148507e-14 -3.9462254319732956e-15 0.0 0.0 0.0 -3.1805546814635168e-15 1.987846675914698e-16 -3.975693351829396e-16 -0.8039846872119444 -18.914462917380078 -4.023220621057314 -0.9381350053311603 31.17253111745667 1.9081055106967189 2.2069531490250793e-32 -3.1805546814635164e-15 7.951386703658791e-16
0.0 0.0 821.2969820969188 29.591751853334436 7.6656486183173 3.792492223098721 0.0 0.0 1.987846675914698e-16 -1.0201842062793451 -23.425492048952876 -0.6866091803295953 1.10901925314406 30.489684261070572 -0.1744601993424472 0.0 0.0 0.0 0.0 0.0 1.987846675914698e-16 0.3457351436198262 8.333355745323132 1.746245468939322 -1.5071302805065219 0.0 0.0 0.0 0.0 3.975693351829396e-16 -2.8188062697407172 11.787652904751484 70.53879121205604 -98.04878522223848 1.5292667188731595e-14 -9.069569053174543e-15 0.0 0.0 0.0 0.0 0.0 3.975693351829396e-16 -4.544156595167475 -14.534714151604653 -7.998373229409897 0.0 0.0 3.975693351829396e-16 0.9265757829577516 15.492159259144977 -73.55152161517982 109.65313694181832 -4.135133421622686e-15 -1.0696155227394209e-14 0.0 0.0 0.0 0.0 0.0 1.987846675914698e-16 -0.8000231359642896 -18.672124052614972 -3.810035998076086 -0.8041334326846414 31.37639584886153 1.722468273029774 0.0 0.0 0.0
0.0 0.0 821.2969820969188 29.433071565495595 7.2922139718133865 3.7252497529899733 0.0 0.0 0.0 -0.9912470577864481 -23.031547327724233 -0.5638695862615557 1.1678688771562895 30.610806966858547 -0.2433321684127018 -3.1805546814635168e-15 3.975693351829396e-16 -7.951386703658792e-16 0.0 0.0 0.0 0.3377329215046244 8.221956825065073 1.9004178251707617 -1.5543280699009276 4.029252559651798e-16 -3.921402691142592e-16 0.0 0.0 3.975693351829396e-16 -2.797776720254739 11.843350760183426 70.46469857793019 -97.88688152355553 -1.7892083728257215e-15 -2.6594591285950673e-15 0.0 0.0 0.0 0.0 0.0 3.975693351829396e-16 -4.1515649995496915 -14.254475280241772 -7.91314116612304 0.0 0.0 3.975693351829396e-16 0.9597607391239051 15.8383979568727 -73.57815434340019 109.50719464230505 5.194976734361807e-15 3.670957512224502e-15 0.0 0.0 -3.1805546814635168e-15 0.0 0.0 0.0 -0.7750957046289989 -18.29440941182213 -3.6147231229062236 -0.7107636671578668 31.655545456628275 1.5812374208498974 0.0 0.0 0.0
0.0 0.0 821.2969820969188 29.344564970832334 6.781411316819383 3.781501752367527 0.0 0.0 -3.975693351829396e-16 -0.9761071403391168 -22.476724643924328 -0.6368630163284172 1.1483959985896954 30.88125292212025 -0.1726080272218591 -3.180554681463516e-15 -2.2069531490250793e-32 7.95138670365879e-16 0.0 0.0 -3.975693351829396e-16 0.3354984518516981 8.074761448205141 2.0753466400367806 -1.659206173080988 -2.76542464456711e-15 -1.2328772685606382e-15 3.1805546814635168e-15 -3.975693351829396e-16 -1.5902773407317584e-15 -2.8705166214322233 11.998731898222129 70.29410201467124 -97.79515676037894 8.375995532813029e-15 1.1342137857846092e-15 0.0 0.0 3.1805546814635168e-15 3.1805546814635168e-15 -3.975693351829396e-16 -1.5902773407317584e-15 -4.12809360976349 -13.776568829643004 -8.14048226427756 3.1805546814635168e-15 -3.975693351829396e-16 -1.5902773407317584e-15 1.1063578732545636 16.23842226301285 -73.6898854261052 109.23783960268564 -8.869492058434871e-15 1.5031750661838146e-15 0.0 0.0 0.0 0.0 0.0 -3.975693351829396e-16 -0.7625737358579436 -17.824043167714503 -3.6258147346425416 -0.7163732520571059 32.105332543969745 1.5455744674676557 0.0 0.0 -7.951386703658792e-16
